<?xml version="1.0" encoding="UTF-8"?>
<svg xmlns="http://www.w3.org/2000/svg" width="142" height="56" viewBox="0 0 40 15.849226">
  <g transform="translate(72.387229,-211.00794)">
    <path style="fill:#facb29;fill-rule:nonzero;stroke:none" d="m -33.829193,213.38155 c -0.953276,-1.5234 -2.232343,-2.36615 -3.603664,-2.37361 l -29.901266,9.2e-4 c -1.37215,0.004 -2.653711,0.84521 -3.607816,2.36862 -0.932499,1.48852 -1.44529,3.46155 -1.44529,5.5551 0,2.09271 0.512791,4.06409 1.442796,5.55178 0.951612,1.52257 2.23068,2.3653 3.60283,2.3728 l 29.901266,-9.2e-4 c 1.372982,-0.004 2.654542,-0.84524 3.607819,-2.36865 0.932496,-1.48852 1.445287,-3.46155 1.445287,-5.55593 0,-2.09106 -0.511961,-4.06243 -1.441962,-5.55011"/>
    <path style="fill:#004049;fill-rule:nonzero;stroke:#facb29;stroke-width:0.4;stroke-miterlimit:4;stroke-dasharray:none" d="m -48.543755,224.27449 c 0.920993,-1.42318 1.428707,-3.31995 1.428707,-5.34159 0,-2.01747 -0.506851,-3.91339 -1.426109,-5.33659 -0.895865,-1.38714 -2.076781,-2.15406 -3.322678,-2.16077 l -15.381283,8.4e-4 c -1.246763,0.002 -2.428543,0.76859 -3.327009,2.15575 -0.921858,1.42404 -1.428709,3.32081 -1.428709,5.34077 0,2.01912 0.505984,3.9142 1.426109,5.33741 0.896733,1.38631 2.075917,2.15408 3.323545,2.16077 h 15.37955 c 1.248496,-0.002 2.430277,-0.76943 3.327877,-2.15659"/>
    <path style="fill:#facb29;fill-rule:evenodd;stroke:none" d="m -59.520128,223.12561 c -0.09143,0 -0.186161,-0.004 -0.282574,-0.0117 -1.593224,-0.13876 -2.22985,-1.2508 -2.963714,-1.84671 -0.787885,-0.64162 -1.866657,-1.31481 -4.492941,-1.52009 0,0 1.33392,-2.09188 1.616493,-2.549 0.371504,-0.60337 0.75298,-1.45277 2.196607,-1.45277 0.132966,0 0.274265,0.007 0.426355,0.0235 l -1.754458,2.76675 c 0,0 2.007112,0.32831 3.188943,1.41955 0.735527,0.68064 0.817806,0.74966 1.101212,1.03971 0.623325,0.60837 1.183491,0.81864 1.658879,0.81864 1.067137,0 1.712903,-1.058 1.712903,-1.058 0,0 -0.4463,0.19624 -0.979039,0.19624 -0.373996,0 -0.791209,-0.0973 -1.128637,-0.42636 -0.828609,-0.81365 -1.047189,-1.02891 -1.047189,-1.02891 0,0 -0.94164,-1.0372 -3.014412,-1.65972 l 0.861855,-1.35387 c 0.290055,-0.48618 1.200113,-1.74282 2.824086,-1.74282 0.09226,0 0.186987,0.004 0.282577,0.0117 1.593223,0.13876 2.231511,1.25081 2.963711,1.84752 0.789548,0.64163 1.86749,1.31483 4.492944,1.51927 0,0 -1.33392,2.09274 -1.615664,2.54982 -0.372333,0.60339 -0.75381,1.45277 -2.196605,1.45277 -0.132968,0 -0.275095,-0.007 -0.427186,-0.0235 l 1.755288,-2.76673 c 0,0 -2.007113,-0.32746 -3.18811,-1.41953 -0.737188,-0.68067 -0.818637,-0.74964 -1.102873,-1.03888 -0.623329,-0.60839 -1.182661,-0.81865 -1.658052,-0.81865 -1.067136,0 -1.712903,1.058 -1.712903,1.058 0,0 0.445471,-0.19695 0.979039,-0.19695 0.374829,0 0.79204,0.0973 1.127808,0.42719 0.829442,0.81366 1.04885,1.02809 1.04885,1.02809 0,0 0.939979,1.03719 3.01441,1.65969 l -0.862682,1.35471 c -0.290058,0.48536 -1.200944,1.74199 -2.82492,1.74199"/>
    <path style="fill:#004049;stroke:none" d="m -43.446214,219.70494 0.669165,-2.08816 q 0.06913,-0.21886 0.282046,-0.33987 0.174204,-0.0978 0.39265,-0.0978 h 0.412008 v 3.48113 h -0.713408 v -2.88635 l -0.951211,2.88635 h -0.420303 l -0.956741,-2.87347 v 2.87347 h -0.503256 v -3.48113 h 0.929089 z"/>
    <path style="fill:#004049;stroke:none" d="m -39.943262,220.66019 h -0.695195 v -2.48983 q -0.0026,-0.17251 0.208559,-0.3785 0.157062,-0.14933 0.355322,-0.20598 v -0.0154 h -0.63855 l -0.0309,-0.39137 h 1.032493 q 0.365621,0 0.535558,0.0206 0.383644,0.0463 0.602502,0.2446 0.260055,0.23431 0.260055,0.62053 0,0.39909 -0.231731,0.66687 -0.136465,0.15965 -0.321851,0.24719 -0.08754,0.0412 -0.270353,0.0953 l 1.050517,1.58608 h -0.800762 l -0.924352,-1.50368 q -0.01545,-0.0258 -0.01545,-0.0618 0,-0.0463 0.02574,-0.0721 0.01287,-0.0129 0.149339,-0.0541 0.638549,-0.19568 0.638549,-0.80849 0,-0.37077 -0.224008,-0.49951 -0.144188,-0.085 -0.49436,-0.085 h -0.211133 z"/>
    <path style="fill:#004049;stroke:none" d="m -36.714269,220.66019 v -2.45121 q 0,-0.10041 0.08754,-0.23946 0.187961,-0.27292 0.476338,-0.34759 v -0.0154 h -1.449611 l -0.02574,-0.42742 h 2.531025 v 0.42742 h -0.914053 v 3.0537 z"/>
  </g>
</svg>
